<svg height="512pt" viewBox="-94 0 512 512" width="512pt" xmlns="http://www.w3.org/2000/svg"><g fill-rule="evenodd"><path d="m161.523438 63.480469c83.667968 0 151.519531 67.851562 151.519531 151.519531 0 76.40625-56.589844 139.613281-130.128907 150.011719v47.859375h46.347657v42.78125h-46.347657v46.347656h-42.78125v-46.347656h-46.347656v-42.78125h46.347656v-47.859375c-73.539062-10.398438-130.128906-73.605469-130.128906-150.011719 0-83.667969 67.851563-151.519531 151.519532-151.519531zm0 42.78125c-60.054688 0-108.738282 48.683593-108.738282 108.738281s48.683594 108.738281 108.738282 108.738281c60.050781 0 108.738281-48.683593 108.738281-108.738281 0-60.050781-48.6875-108.738281-108.738281-108.738281zm0 0" fill="#9b51a0"/><path d="m164.617188 114.148438v.136718zm-93.925782 56.382812v-54.6875c.074219 12.847656 10.617188 23.34375 23.480469 23.34375 12.914063 0 23.480469-10.566406 23.480469-23.480469v-67.703125c0-12.910156 10.574218-23.480468 23.484375-23.480468 12.867187 0 23.402343 10.488281 23.480469 23.339843v66.285157c0-12.914063 10.570312-23.484376 23.480468-23.484376h57.542969c4.757813 0 9.195313 1.433594 12.90625 3.890626 6.359375 4.214843 10.574219 11.433593 10.574219 19.589843v56.386719c0 37.417969-20.816406 70.074219-51.601563 86.964844v50.726562c-16.355469 9.847656-35.511719 15.515625-55.996093 15.515625-20.484376 0-39.640626-5.667969-55.996094-15.511719v-62.355468c-21.289063-18.234375-34.835938-45.28125-34.835938-75.339844zm0 0" fill="#f4cdac"/><path d="m117.65625 115.707031v-51.695312c0-12.914063-10.566406-23.480469-23.484375-23.480469-12.914063 0-23.480469 10.578125-23.480469 23.480469v51.832031c.074219 12.847656 10.617188 23.34375 23.484375 23.34375 12.910157 0 23.480469-10.566406 23.480469-23.480469zm0 0" fill="#f4cdac"/><path d="m164.617188 48.003906v66.144532c0-12.914063 10.570312-23.484376 23.480468-23.484376h23.484375v-34.65625c0-.046874 0-.09375 0-.140624v-22.382813c0-12.917969-10.566406-23.484375-23.480469-23.484375-12.917968 0-23.484374 10.570312-23.484374 23.484375v14.378906zm0 0" fill="#f4cdac"/><path d="m211.582031 56.007812v34.65625h34.058594c4.757813 0 9.195313 1.4375 12.90625 3.890626v-38.546876c0-12.917968-10.570313-23.484374-23.480469-23.484374-12.867187 0-23.410156 10.496093-23.484375 23.34375zm0 0" fill="#f4cdac"/><path d="m105.527344 245.871094c-21.289063-18.234375-34.835938-45.28125-34.835938-75.339844v-5.289062c0-.105469 0-.210938 0-.320313v-9.707031c-11.316406 17.152344-17.90625 37.699218-17.90625 59.785156 0 39.570312 21.140625 74.207031 52.742188 93.230469zm0 0" fill="#8eecf0"/><path d="m217.519531 257.496094v50.734375c31.601563-19.023438 52.742188-53.660157 52.742188-93.230469 0-8.742188-1.03125-17.242188-2.980469-25.386719-.203125-.859375-.421875-1.710937-.644531-2.5625-6.382813 27.910157-24.585938 51.382813-49.117188 64.839844zm0 0" fill="#8eecf0"/></g><path d="m27.65625 143.34375c1.636719 1.011719 3.453125 1.496094 5.25 1.496094 3.351562 0 6.628906-1.683594 8.527344-4.738282 2.910156-4.695312 1.460937-10.859374-3.230469-13.769531-4.695313-2.910156-10.859375-1.464843-13.769531 3.226563l-.015625.027344c-2.910157 4.691406-1.457031 10.847656 3.238281 13.757812zm0 0"/><path d="m278.804688 103.964844c-1.066407-7.765625-4.804688-14.691406-10.257813-19.8125v-33.75c0-18.460938-15.019531-33.484375-33.480469-33.484375-5.761718 0-11.1875 1.464843-15.925781 4.035156-4.972656-12.269531-17.007813-20.953125-31.039063-20.953125-11.605468 0-21.847656 5.9375-27.855468 14.929688-5.425782-3.785157-12.011719-6.011719-19.109375-6.011719-13.75 0-25.589844 8.335937-30.738281 20.214843-4.808594-2.675781-10.339844-4.207031-16.226563-4.207031-18.460937 0-33.480469 15.019531-33.480469 33.480469v51.6875.007812.007813 42.175781c-11.726562 18.808594-17.90625 40.425782-17.90625 62.714844 0 65.472656 53.265625 118.738281 118.738282 118.738281 22.382812 0 42.996093-5.726562 61.257812-17.023437 2.945312-1.820313 4.738281-5.039063 4.738281-8.503906v-50.589844c12.792969-7.953125 23.609375-18.324219 31.980469-30.328125-1.09375 8.757812-3.359375 17.3125-6.78125 25.554687-2.117188 5.101563.300781 10.953125 5.402344 13.070313 5.101562 2.117187 10.953125-.300781 13.070312-5.402344 6.019532-14.503906 9.070313-29.816406 9.070313-45.515625 0-9.507812-1.132813-18.96875-3.367188-28.152344 1.464844-7.136718 2.226563-14.476562 2.226563-21.925781v-28.6875c15.554687 23.117187 23.921875 50.316406 23.921875 78.761719 0 70.078125-52.246094 130.3125-121.53125 140.109375-4.933594.699219-8.597657 4.917969-8.597657 9.902343v47.859376c0 5.523437 4.476563 10 10 10h36.347657v22.78125h-36.347657c-5.523437 0-10 4.476562-10 10v36.351562h-22.78125v-36.347656c0-5.523438-4.480468-10-10-10h-36.351562v-22.78125h36.351562c5.519532 0 10-4.476563 10-10v-47.859375c0-4.984375-3.667968-9.207031-8.601562-9.902344-69.285156-9.796875-121.53125-70.03125-121.53125-140.109375 0-17.574219 3.183594-34.71875 9.457031-50.964844 1.988281-5.152344-.574219-10.941406-5.726562-12.929687-5.152344-1.992188-10.941407.574219-12.929688 5.722656-7.167969 18.554687-10.800781 38.125-10.800781 58.171875 0 39.152344 14.191406 76.917969 39.964844 106.347656 23.59375 26.941406 55.351562 45.234375 90.164062 52.109375v29.414063h-36.347656c-5.523438 0-10 4.476562-10 10v42.78125c0 5.523437 4.476562 10 10 10h36.347656v36.347656c0 5.523438 4.476563 10 10 10h42.78125c5.523438 0 10-4.476562 10-10v-36.347656h36.351563c5.519531 0 10-4.476563 10-10v-42.78125c0-5.523438-4.480469-10-10-10h-36.351563v-29.414063c34.816406-6.875 66.574219-25.167969 90.167969-52.109375 25.769531-29.429687 39.964844-67.195312 39.964844-106.347656 0-41.625-15.683594-80.90625-44.238281-111.035156zm-43.738282-67.046875c7.433594 0 13.480469 6.046875 13.480469 13.484375v24.789062c-.957031-.082031-1.925781-.132812-2.902344-.132812h-24.0625v-24.65625c0-7.433594 6.046875-13.484375 13.484375-13.484375zm-46.964844-16.917969c7.433594 0 13.480469 6.046875 13.480469 13.484375v41.574219h-13.484375c-4.792968 0-9.351562 1.023437-13.480468 2.84375v-35.488282c0-.003906 0-.011718 0-.015624 0-.015626 0-.027344 0-.039063v-8.875c0-7.4375 6.046874-13.484375 13.484374-13.484375zm-60.449218 22.394531c0-7.429687 6.050781-13.480469 13.484375-13.480469 7.425781 0 13.46875 6.039063 13.476562 13.464844v66.160156.003907c0 .011719.003907.023437.003907.035156v23.949219c0 7.433594-6.050782 13.480468-13.484376 13.480468-7.433593 0-13.480468-6.046874-13.480468-13.480468zm-33.480469 2.53125c7.433594 0 13.480469 6.046875 13.480469 13.480469v51.695312c0 7.433594-6.046875 13.480469-13.480469 13.480469s-13.480469-6.046875-13.484375-13.476562v-51.699219c.003906-7.433594 6.050781-13.480469 13.484375-13.480469zm1.355469 243.457031c-20.089844-18.085937-32.742188-44.285156-32.742188-73.382812 0-6.871094.707032-13.667969 2.09375-20.296875 5.488282 19.160156 16.152344 36.476563 30.648438 50.027344zm163.597656-123.457031c0 32.527344-17.785156 62.492188-46.414062 78.199219-3.203126 1.757812-5.191407 5.117188-5.191407 8.765625v50.570313c-13.953125 7.582031-29.054687 11.277343-45.996093 11.277343-16.597657 0-32.25-4.117187-45.996094-11.382812v-42.796875c5.402344 3.125 11.117187 5.808594 17.105468 7.996094 5.1875 1.898437 10.929688-.769532 12.828126-5.957032 1.894531-5.1875-.773438-10.929687-5.957032-12.824218-10.105468-3.695313-19.257812-9.113282-27.171875-15.835938-.195312-.179688-.398437-.355469-.605469-.519531-19.277343-16.679688-31.035156-41.191407-31.035156-67.496094v-24.183594c4.125 1.824219 8.6875 2.84375 13.480469 2.84375 5.15625 0 10.042969-1.175781 14.40625-3.265625 3.1875 13.304688 14.332031 23.546875 28.101563 25.382813-1.566407 4.359375.066406 9.363281 4.167968 11.890625 1.632813 1.007812 3.445313 1.488281 5.238282 1.488281 3.351562 0 6.628906-1.6875 8.519531-4.753906 12.464843-20.21875 34.082031-32.292969 57.832031-32.300781h9.722656c5.523438 0 10-4.476563 10-10 0-5.523438-4.476562-10-10-10h-9.683594c-.003906 0-.003906 0-.007812 0-.011719 0-.023438 0-.03125 0h-24.339844c-7.425781 0-13.46875-6.039063-13.480468-13.464844v-.019532c0-.003906 0-.003906 0-.007812.003906-7.429688 6.046874-13.472656 13.480468-13.472656h57.542969c2.667969 0 5.148437.789062 7.246094 2.128906.113281.082031.234375.152344.355469.226562 3.546874 2.433594 5.878906 6.511719 5.878906 11.125v56.386719zm0 0"/><path d="m248.207031 290.644531c2.78125 0 5.550781-1.15625 7.527344-3.414062.1875-.210938.375-.445313.542969-.671875 3.253906-4.414063 2.347656-10.636719-2.050782-13.9375-4.371093-3.277344-10.558593-2.433594-13.894531 1.867187-3.253906 4.152344-2.722656 10.167969 1.292969 13.683594 1.898438 1.660156 4.242188 2.476563 6.582031 2.472656zm0 0"/></svg>